<?xml version="1.0" encoding="UTF-8" standalone="no"?>
<!DOCTYPE svg PUBLIC "-//W3C//DTD SVG 1.1//EN"
 "http://www.w3.org/Graphics/SVG/1.1/DTD/svg11.dtd">
<!-- Generated by graphviz version 2.38.0 (20140413.2041)
 -->
<!-- Title: %3 Pages: 1 -->
<svg width="922pt" height="1440pt"
 viewBox="0.00 0.00 921.75 1440.00" xmlns="http://www.w3.org/2000/svg" xmlns:xlink="http://www.w3.org/1999/xlink">
<g id="graph0" class="graph" transform="scale(0.517401 0.517401) rotate(0) translate(4 2779.14)">
<title>%3</title>
<polygon fill="white" stroke="none" points="-4,4 -4,-2779.14 1777.5,-2779.14 1777.5,4 -4,4"/>
<!-- 0 -->
<g id="node1" class="node"><title>0</title>
<ellipse fill="none" stroke="black" cx="109.84" cy="-1677.14" rx="109.681" ry="109.681"/>
<text text-anchor="middle" x="109.84" y="-1673.44" font-family="Times New Roman,serif" font-size="14.00">MeanRegionSales&lt;5343.76</text>
</g>
<!-- 1 -->
<g id="node2" class="node"><title>1</title>
<ellipse fill="none" stroke="black" cx="439.07" cy="-1945.14" rx="114.28" ry="114.28"/>
<text text-anchor="middle" x="439.07" y="-1941.44" font-family="Times New Roman,serif" font-size="14.00">AssortmentType_General&lt;1</text>
</g>
<!-- 0&#45;&gt;1 -->
<g id="edge1" class="edge"><title>0&#45;&gt;1</title>
<path fill="none" stroke="#0000ff" d="M195.536,-1746.51C240.378,-1783.23 295.622,-1828.48 342.052,-1866.5"/>
<polygon fill="#0000ff" stroke="#0000ff" points="340.064,-1869.4 350.018,-1873.03 344.5,-1863.98 340.064,-1869.4"/>
<text text-anchor="middle" x="272.181" y="-1838.94" font-family="Times New Roman,serif" font-size="14.00">yes, missing</text>
</g>
<!-- 2 -->
<g id="node3" class="node"><title>2</title>
<ellipse fill="none" stroke="black" cx="439.07" cy="-1245.14" rx="114.28" ry="114.28"/>
<text text-anchor="middle" x="439.07" y="-1241.44" font-family="Times New Roman,serif" font-size="14.00">AssortmentType_General&lt;1</text>
</g>
<!-- 0&#45;&gt;2 -->
<g id="edge2" class="edge"><title>0&#45;&gt;2</title>
<path fill="none" stroke="#ff0000" d="M176.863,-1589.98C230.812,-1518.76 307.07,-1418.08 363.269,-1343.89"/>
<polygon fill="#ff0000" stroke="#ff0000" points="366.082,-1345.97 369.33,-1335.89 360.502,-1341.75 366.082,-1345.97"/>
<text text-anchor="middle" x="272.181" y="-1502.94" font-family="Times New Roman,serif" font-size="14.00">no</text>
</g>
<!-- 3 -->
<g id="node4" class="node"><title>3</title>
<ellipse fill="none" stroke="black" cx="768.3" cy="-2276.14" rx="109.681" ry="109.681"/>
<text text-anchor="middle" x="768.3" y="-2272.44" font-family="Times New Roman,serif" font-size="14.00">Region_PopulationK&lt;5320</text>
</g>
<!-- 1&#45;&gt;3 -->
<g id="edge3" class="edge"><title>1&#45;&gt;3</title>
<path fill="none" stroke="#0000ff" d="M520.12,-2026.11C569.533,-2076.1 632.848,-2140.14 683.026,-2190.9"/>
<polygon fill="#0000ff" stroke="#0000ff" points="680.811,-2193.63 690.331,-2198.28 685.789,-2188.71 680.811,-2193.63"/>
<text text-anchor="middle" x="605.96" y="-2143.94" font-family="Times New Roman,serif" font-size="14.00">yes, missing</text>
</g>
<!-- 4 -->
<g id="node5" class="node"><title>4</title>
<ellipse fill="none" stroke="black" cx="768.3" cy="-1945.14" rx="98.2828" ry="98.2828"/>
<text text-anchor="middle" x="768.3" y="-1941.44" font-family="Times New Roman,serif" font-size="14.00">NearestCompetitor&lt;378</text>
</g>
<!-- 1&#45;&gt;4 -->
<g id="edge4" class="edge"><title>1&#45;&gt;4</title>
<path fill="none" stroke="#ff0000" d="M553.601,-1945.14C587.979,-1945.14 625.621,-1945.14 659.605,-1945.14"/>
<polygon fill="#ff0000" stroke="#ff0000" points="660.027,-1948.64 670.026,-1945.14 660.026,-1941.64 660.027,-1948.64"/>
<text text-anchor="middle" x="605.96" y="-1948.94" font-family="Times New Roman,serif" font-size="14.00">no</text>
</g>
<!-- 5 -->
<g id="node28" class="node"><title>5</title>
<ellipse fill="none" stroke="black" cx="768.3" cy="-1245.14" rx="105.082" ry="105.082"/>
<text text-anchor="middle" x="768.3" y="-1241.44" font-family="Times New Roman,serif" font-size="14.00">Min_VisibilitykM&lt;117861</text>
</g>
<!-- 2&#45;&gt;5 -->
<g id="edge27" class="edge"><title>2&#45;&gt;5</title>
<path fill="none" stroke="#0000ff" d="M553.601,-1245.14C585.582,-1245.14 620.388,-1245.14 652.446,-1245.14"/>
<polygon fill="#0000ff" stroke="#0000ff" points="652.751,-1248.64 662.751,-1245.14 652.75,-1241.64 652.751,-1248.64"/>
<text text-anchor="middle" x="605.96" y="-1248.94" font-family="Times New Roman,serif" font-size="14.00">yes, missing</text>
</g>
<!-- 6 -->
<g id="node29" class="node"><title>6</title>
<ellipse fill="none" stroke="black" cx="768.3" cy="-566.141" rx="105.082" ry="105.082"/>
<text text-anchor="middle" x="768.3" y="-562.441" font-family="Times New Roman,serif" font-size="14.00">Min_VisibilitykM&lt;250236</text>
</g>
<!-- 2&#45;&gt;6 -->
<g id="edge28" class="edge"><title>2&#45;&gt;6</title>
<path fill="none" stroke="#ff0000" d="M489.592,-1142.38C551.14,-1014.67 655.581,-797.959 717.335,-669.82"/>
<polygon fill="#ff0000" stroke="#ff0000" points="720.517,-671.277 721.706,-660.749 714.212,-668.238 720.517,-671.277"/>
<text text-anchor="middle" x="605.96" y="-969.941" font-family="Times New Roman,serif" font-size="14.00">no</text>
</g>
<!-- 7 -->
<g id="node6" class="node"><title>7</title>
<ellipse fill="none" stroke="black" cx="1105.98" cy="-2620.14" rx="98.2828" ry="98.2828"/>
<text text-anchor="middle" x="1105.98" y="-2616.44" font-family="Times New Roman,serif" font-size="14.00">NearestCompetitor&lt;510</text>
</g>
<!-- 3&#45;&gt;7 -->
<g id="edge5" class="edge"><title>3&#45;&gt;7</title>
<path fill="none" stroke="#0000ff" d="M845.891,-2354.63C900.892,-2410.99 974.675,-2486.61 1029.43,-2542.72"/>
<polygon fill="#0000ff" stroke="#0000ff" points="1027.2,-2545.45 1036.69,-2550.16 1032.21,-2540.56 1027.2,-2545.45"/>
<text text-anchor="middle" x="930.641" y="-2471.94" font-family="Times New Roman,serif" font-size="14.00">yes, missing</text>
</g>
<!-- 8 -->
<g id="node7" class="node"><title>8</title>
<ellipse fill="none" stroke="black" cx="1105.98" cy="-2276.14" rx="122.678" ry="122.678"/>
<text text-anchor="middle" x="1105.98" y="-2272.44" font-family="Times New Roman,serif" font-size="14.00">StoreType_ShoppingCenter&lt;1</text>
</g>
<!-- 3&#45;&gt;8 -->
<g id="edge6" class="edge"><title>3&#45;&gt;8</title>
<path fill="none" stroke="#ff0000" d="M878.286,-2276.14C908.43,-2276.14 941.473,-2276.14 972.782,-2276.14"/>
<polygon fill="#ff0000" stroke="#ff0000" points="972.88,-2279.64 982.88,-2276.14 972.88,-2272.64 972.88,-2279.64"/>
<text text-anchor="middle" x="930.641" y="-2279.94" font-family="Times New Roman,serif" font-size="14.00">no</text>
</g>
<!-- 9 -->
<g id="node16" class="node"><title>9</title>
<ellipse fill="none" stroke="black" cx="1105.98" cy="-2005.14" rx="109.681" ry="109.681"/>
<text text-anchor="middle" x="1105.98" y="-2001.44" font-family="Times New Roman,serif" font-size="14.00">Region_PopulationK&lt;3841</text>
</g>
<!-- 4&#45;&gt;9 -->
<g id="edge15" class="edge"><title>4&#45;&gt;9</title>
<path fill="none" stroke="#0000ff" d="M865.043,-1962.25C903.184,-1969.07 947.458,-1976.99 987.513,-1984.14"/>
<polygon fill="#0000ff" stroke="#0000ff" points="987.139,-1987.63 997.599,-1985.95 988.371,-1980.74 987.139,-1987.63"/>
<text text-anchor="middle" x="930.641" y="-1981.94" font-family="Times New Roman,serif" font-size="14.00">yes, missing</text>
</g>
<!-- 10 -->
<g id="node17" class="node"><title>10</title>
<ellipse fill="none" stroke="black" cx="1105.98" cy="-1767.14" rx="109.681" ry="109.681"/>
<text text-anchor="middle" x="1105.98" y="-1763.44" font-family="Times New Roman,serif" font-size="14.00">Region_PopulationK&lt;1872</text>
</g>
<!-- 4&#45;&gt;10 -->
<g id="edge16" class="edge"><title>4&#45;&gt;10</title>
<path fill="none" stroke="#ff0000" d="M855.31,-1899.53C899.291,-1876.21 953.196,-1847.63 999.648,-1823"/>
<polygon fill="#ff0000" stroke="#ff0000" points="1001.34,-1826.06 1008.53,-1818.28 998.058,-1819.88 1001.34,-1826.06"/>
<text text-anchor="middle" x="930.641" y="-1880.94" font-family="Times New Roman,serif" font-size="14.00">no</text>
</g>
<!-- 15 -->
<g id="node8" class="node"><title>15</title>
<polygon fill="none" stroke="black" points="1501.16,-2775.14 1412.16,-2775.14 1412.16,-2739.14 1501.16,-2739.14 1501.16,-2775.14"/>
<text text-anchor="middle" x="1456.66" y="-2753.44" font-family="Times New Roman,serif" font-size="14.00">leaf=1.31016</text>
</g>
<!-- 7&#45;&gt;15 -->
<g id="edge7" class="edge"><title>7&#45;&gt;15</title>
<path fill="none" stroke="#0000ff" d="M1192.21,-2667.33C1233.92,-2688.89 1285.45,-2713.32 1333.82,-2730.14 1355.72,-2737.76 1380.61,-2743.73 1402.16,-2748.1"/>
<polygon fill="#0000ff" stroke="#0000ff" points="1401.64,-2751.56 1412.12,-2750.05 1402.98,-2744.69 1401.64,-2751.56"/>
<text text-anchor="middle" x="1281.32" y="-2726.94" font-family="Times New Roman,serif" font-size="14.00">yes, missing</text>
</g>
<!-- 16 -->
<g id="node9" class="node"><title>16</title>
<ellipse fill="none" stroke="black" cx="1456.66" cy="-2620.14" rx="100.983" ry="100.983"/>
<text text-anchor="middle" x="1456.66" y="-2616.44" font-family="Times New Roman,serif" font-size="14.00">Min_VisibilitykM&lt;76782</text>
</g>
<!-- 7&#45;&gt;16 -->
<g id="edge8" class="edge"><title>7&#45;&gt;16</title>
<path fill="none" stroke="#ff0000" d="M1204.57,-2620.14C1248.4,-2620.14 1300.31,-2620.14 1345.53,-2620.14"/>
<polygon fill="#ff0000" stroke="#ff0000" points="1345.67,-2623.64 1355.67,-2620.14 1345.67,-2616.64 1345.67,-2623.64"/>
<text text-anchor="middle" x="1281.32" y="-2623.94" font-family="Times New Roman,serif" font-size="14.00">no</text>
</g>
<!-- 17 -->
<g id="node12" class="node"><title>17</title>
<ellipse fill="none" stroke="black" cx="1456.66" cy="-2395.14" rx="106.681" ry="106.681"/>
<text text-anchor="middle" x="1456.66" y="-2391.44" font-family="Times New Roman,serif" font-size="14.00">NearestCompetitor&lt;26516</text>
</g>
<!-- 8&#45;&gt;17 -->
<g id="edge11" class="edge"><title>8&#45;&gt;17</title>
<path fill="none" stroke="#0000ff" d="M1222.6,-2315.6C1262.26,-2329.14 1306.5,-2344.24 1345.7,-2357.61"/>
<polygon fill="#0000ff" stroke="#0000ff" points="1344.95,-2361.06 1355.55,-2360.97 1347.21,-2354.43 1344.95,-2361.06"/>
<text text-anchor="middle" x="1281.32" y="-2349.94" font-family="Times New Roman,serif" font-size="14.00">yes, missing</text>
</g>
<!-- 18 -->
<g id="node13" class="node"><title>18</title>
<polygon fill="none" stroke="black" points="1501.16,-2270.14 1412.16,-2270.14 1412.16,-2234.14 1501.16,-2234.14 1501.16,-2270.14"/>
<text text-anchor="middle" x="1456.66" y="-2248.44" font-family="Times New Roman,serif" font-size="14.00">leaf=1.40105</text>
</g>
<!-- 8&#45;&gt;18 -->
<g id="edge12" class="edge"><title>8&#45;&gt;18</title>
<path fill="none" stroke="#ff0000" d="M1228.93,-2267.75C1288.09,-2263.68 1356.11,-2258.99 1402.09,-2255.83"/>
<polygon fill="#ff0000" stroke="#ff0000" points="1402.4,-2259.32 1412.14,-2255.14 1401.92,-2252.33 1402.4,-2259.32"/>
<text text-anchor="middle" x="1281.32" y="-2269.94" font-family="Times New Roman,serif" font-size="14.00">no</text>
</g>
<!-- 31 -->
<g id="node10" class="node"><title>31</title>
<polygon fill="none" stroke="black" points="1770,-2665.14 1688,-2665.14 1688,-2629.14 1770,-2629.14 1770,-2665.14"/>
<text text-anchor="middle" x="1729" y="-2643.44" font-family="Times New Roman,serif" font-size="14.00">leaf=1.2864</text>
</g>
<!-- 16&#45;&gt;31 -->
<g id="edge9" class="edge"><title>16&#45;&gt;31</title>
<path fill="none" stroke="#0000ff" d="M1557.17,-2630.08C1598.24,-2634.18 1644.04,-2638.76 1677.87,-2642.13"/>
<polygon fill="#0000ff" stroke="#0000ff" points="1677.66,-2645.63 1687.96,-2643.14 1678.36,-2638.67 1677.66,-2645.63"/>
<text text-anchor="middle" x="1632" y="-2643.94" font-family="Times New Roman,serif" font-size="14.00">yes, missing</text>
</g>
<!-- 32 -->
<g id="node11" class="node"><title>32</title>
<polygon fill="none" stroke="black" points="1773.5,-2611.14 1684.5,-2611.14 1684.5,-2575.14 1773.5,-2575.14 1773.5,-2611.14"/>
<text text-anchor="middle" x="1729" y="-2589.44" font-family="Times New Roman,serif" font-size="14.00">leaf=1.25753</text>
</g>
<!-- 16&#45;&gt;32 -->
<g id="edge10" class="edge"><title>16&#45;&gt;32</title>
<path fill="none" stroke="#ff0000" d="M1557.17,-2610.2C1596.87,-2606.24 1641,-2601.83 1674.45,-2598.49"/>
<polygon fill="#ff0000" stroke="#ff0000" points="1674.88,-2601.96 1684.48,-2597.49 1674.18,-2595 1674.88,-2601.96"/>
<text text-anchor="middle" x="1632" y="-2608.94" font-family="Times New Roman,serif" font-size="14.00">no</text>
</g>
<!-- 33 -->
<g id="node14" class="node"><title>33</title>
<polygon fill="none" stroke="black" points="1773.5,-2440.14 1684.5,-2440.14 1684.5,-2404.14 1773.5,-2404.14 1773.5,-2440.14"/>
<text text-anchor="middle" x="1729" y="-2418.44" font-family="Times New Roman,serif" font-size="14.00">leaf=1.28646</text>
</g>
<!-- 17&#45;&gt;33 -->
<g id="edge13" class="edge"><title>17&#45;&gt;33</title>
<path fill="none" stroke="#0000ff" d="M1562.95,-2405.66C1601.08,-2409.47 1642.54,-2413.61 1674.37,-2416.79"/>
<polygon fill="#0000ff" stroke="#0000ff" points="1674.06,-2420.27 1684.35,-2417.78 1674.75,-2413.31 1674.06,-2420.27"/>
<text text-anchor="middle" x="1632" y="-2418.94" font-family="Times New Roman,serif" font-size="14.00">yes, missing</text>
</g>
<!-- 34 -->
<g id="node15" class="node"><title>34</title>
<polygon fill="none" stroke="black" points="1773.5,-2386.14 1684.5,-2386.14 1684.5,-2350.14 1773.5,-2350.14 1773.5,-2386.14"/>
<text text-anchor="middle" x="1729" y="-2364.44" font-family="Times New Roman,serif" font-size="14.00">leaf=1.33404</text>
</g>
<!-- 17&#45;&gt;34 -->
<g id="edge14" class="edge"><title>17&#45;&gt;34</title>
<path fill="none" stroke="#ff0000" d="M1562.95,-2384.63C1601.08,-2380.82 1642.54,-2376.68 1674.37,-2373.5"/>
<polygon fill="#ff0000" stroke="#ff0000" points="1674.75,-2376.98 1684.35,-2372.5 1674.06,-2370.01 1674.75,-2376.98"/>
<text text-anchor="middle" x="1632" y="-2383.94" font-family="Times New Roman,serif" font-size="14.00">no</text>
</g>
<!-- 19 -->
<g id="node18" class="node"><title>19</title>
<ellipse fill="none" stroke="black" cx="1456.66" cy="-2106.14" rx="109.681" ry="109.681"/>
<text text-anchor="middle" x="1456.66" y="-2102.44" font-family="Times New Roman,serif" font-size="14.00">Region_PopulationK&lt;1872</text>
</g>
<!-- 9&#45;&gt;19 -->
<g id="edge17" class="edge"><title>9&#45;&gt;19</title>
<path fill="none" stroke="#0000ff" d="M1211.59,-2035.44C1252.44,-2047.28 1299.41,-2060.88 1341.16,-2072.97"/>
<polygon fill="#0000ff" stroke="#0000ff" points="1340.24,-2076.35 1350.82,-2075.77 1342.18,-2069.63 1340.24,-2076.35"/>
<text text-anchor="middle" x="1281.32" y="-2067.94" font-family="Times New Roman,serif" font-size="14.00">yes, missing</text>
</g>
<!-- 20 -->
<g id="node19" class="node"><title>20</title>
<polygon fill="none" stroke="black" points="1501.16,-1978.14 1412.16,-1978.14 1412.16,-1942.14 1501.16,-1942.14 1501.16,-1978.14"/>
<text text-anchor="middle" x="1456.66" y="-1956.44" font-family="Times New Roman,serif" font-size="14.00">leaf=1.25955</text>
</g>
<!-- 9&#45;&gt;20 -->
<g id="edge18" class="edge"><title>9&#45;&gt;20</title>
<path fill="none" stroke="#ff0000" d="M1215.39,-1991.15C1277.36,-1983.15 1352.35,-1973.47 1401.89,-1967.08"/>
<polygon fill="#ff0000" stroke="#ff0000" points="1402.59,-1970.52 1412.06,-1965.77 1401.69,-1963.58 1402.59,-1970.52"/>
<text text-anchor="middle" x="1281.32" y="-1989.94" font-family="Times New Roman,serif" font-size="14.00">no</text>
</g>
<!-- 21 -->
<g id="node22" class="node"><title>21</title>
<ellipse fill="none" stroke="black" cx="1456.66" cy="-1819.14" rx="105.082" ry="105.082"/>
<text text-anchor="middle" x="1456.66" y="-1815.44" font-family="Times New Roman,serif" font-size="14.00">Min_VisibilitykM&lt;417355</text>
</g>
<!-- 10&#45;&gt;21 -->
<g id="edge21" class="edge"><title>10&#45;&gt;21</title>
<path fill="none" stroke="#0000ff" d="M1214.92,-1783.24C1255.38,-1789.27 1301.46,-1796.14 1342.39,-1802.25"/>
<polygon fill="#0000ff" stroke="#0000ff" points="1342,-1805.73 1352.41,-1803.74 1343.03,-1798.81 1342,-1805.73"/>
<text text-anchor="middle" x="1281.32" y="-1800.94" font-family="Times New Roman,serif" font-size="14.00">yes, missing</text>
</g>
<!-- 22 -->
<g id="node23" class="node"><title>22</title>
<ellipse fill="none" stroke="black" cx="1456.66" cy="-1593.14" rx="102.882" ry="102.882"/>
<text text-anchor="middle" x="1456.66" y="-1589.44" font-family="Times New Roman,serif" font-size="14.00">NearestCompetitor&lt;5571</text>
</g>
<!-- 10&#45;&gt;22 -->
<g id="edge22" class="edge"><title>10&#45;&gt;22</title>
<path fill="none" stroke="#ff0000" d="M1204.57,-1718.44C1251.6,-1694.97 1307.95,-1666.85 1355.33,-1643.21"/>
<polygon fill="#ff0000" stroke="#ff0000" points="1356.99,-1646.29 1364.38,-1638.69 1353.87,-1640.03 1356.99,-1646.29"/>
<text text-anchor="middle" x="1281.32" y="-1698.94" font-family="Times New Roman,serif" font-size="14.00">no</text>
</g>
<!-- 35 -->
<g id="node20" class="node"><title>35</title>
<polygon fill="none" stroke="black" points="1773.5,-2151.14 1684.5,-2151.14 1684.5,-2115.14 1773.5,-2115.14 1773.5,-2151.14"/>
<text text-anchor="middle" x="1729" y="-2129.44" font-family="Times New Roman,serif" font-size="14.00">leaf=1.27452</text>
</g>
<!-- 19&#45;&gt;35 -->
<g id="edge19" class="edge"><title>19&#45;&gt;35</title>
<path fill="none" stroke="#0000ff" d="M1566.06,-2116.97C1603.27,-2120.68 1643.31,-2124.68 1674.27,-2127.77"/>
<polygon fill="#0000ff" stroke="#0000ff" points="1674.1,-2131.28 1684.4,-2128.79 1674.8,-2124.31 1674.1,-2131.28"/>
<text text-anchor="middle" x="1632" y="-2129.94" font-family="Times New Roman,serif" font-size="14.00">yes, missing</text>
</g>
<!-- 36 -->
<g id="node21" class="node"><title>36</title>
<polygon fill="none" stroke="black" points="1773.5,-2097.14 1684.5,-2097.14 1684.5,-2061.14 1773.5,-2061.14 1773.5,-2097.14"/>
<text text-anchor="middle" x="1729" y="-2075.44" font-family="Times New Roman,serif" font-size="14.00">leaf=1.31982</text>
</g>
<!-- 19&#45;&gt;36 -->
<g id="edge20" class="edge"><title>19&#45;&gt;36</title>
<path fill="none" stroke="#ff0000" d="M1566.06,-2095.31C1603.27,-2091.6 1643.31,-2087.6 1674.27,-2084.51"/>
<polygon fill="#ff0000" stroke="#ff0000" points="1674.8,-2087.97 1684.4,-2083.5 1674.1,-2081.01 1674.8,-2087.97"/>
<text text-anchor="middle" x="1632" y="-2094.94" font-family="Times New Roman,serif" font-size="14.00">no</text>
</g>
<!-- 37 -->
<g id="node24" class="node"><title>37</title>
<polygon fill="none" stroke="black" points="1773.5,-1864.14 1684.5,-1864.14 1684.5,-1828.14 1773.5,-1828.14 1773.5,-1864.14"/>
<text text-anchor="middle" x="1729" y="-1842.44" font-family="Times New Roman,serif" font-size="14.00">leaf=1.23246</text>
</g>
<!-- 21&#45;&gt;37 -->
<g id="edge23" class="edge"><title>21&#45;&gt;37</title>
<path fill="none" stroke="#0000ff" d="M1561.79,-1829.54C1600.18,-1833.38 1642.09,-1837.56 1674.23,-1840.77"/>
<polygon fill="#0000ff" stroke="#0000ff" points="1674,-1844.27 1684.3,-1841.78 1674.7,-1837.3 1674,-1844.27"/>
<text text-anchor="middle" x="1632" y="-1842.94" font-family="Times New Roman,serif" font-size="14.00">yes, missing</text>
</g>
<!-- 38 -->
<g id="node25" class="node"><title>38</title>
<polygon fill="none" stroke="black" points="1773.5,-1810.14 1684.5,-1810.14 1684.5,-1774.14 1773.5,-1774.14 1773.5,-1810.14"/>
<text text-anchor="middle" x="1729" y="-1788.44" font-family="Times New Roman,serif" font-size="14.00">leaf=1.19264</text>
</g>
<!-- 21&#45;&gt;38 -->
<g id="edge24" class="edge"><title>21&#45;&gt;38</title>
<path fill="none" stroke="#ff0000" d="M1561.79,-1808.74C1600.18,-1804.91 1642.09,-1800.72 1674.23,-1797.51"/>
<polygon fill="#ff0000" stroke="#ff0000" points="1674.7,-1800.98 1684.3,-1796.51 1674,-1794.02 1674.7,-1800.98"/>
<text text-anchor="middle" x="1632" y="-1807.94" font-family="Times New Roman,serif" font-size="14.00">no</text>
</g>
<!-- 39 -->
<g id="node26" class="node"><title>39</title>
<polygon fill="none" stroke="black" points="1773.5,-1638.14 1684.5,-1638.14 1684.5,-1602.14 1773.5,-1602.14 1773.5,-1638.14"/>
<text text-anchor="middle" x="1729" y="-1616.44" font-family="Times New Roman,serif" font-size="14.00">leaf=1.24342</text>
</g>
<!-- 22&#45;&gt;39 -->
<g id="edge25" class="edge"><title>22&#45;&gt;39</title>
<path fill="none" stroke="#0000ff" d="M1559.09,-1603.27C1598.16,-1607.17 1641.25,-1611.48 1674.13,-1614.76"/>
<polygon fill="#0000ff" stroke="#0000ff" points="1674.13,-1618.28 1684.43,-1615.79 1674.82,-1611.31 1674.13,-1618.28"/>
<text text-anchor="middle" x="1632" y="-1616.94" font-family="Times New Roman,serif" font-size="14.00">yes, missing</text>
</g>
<!-- 40 -->
<g id="node27" class="node"><title>40</title>
<polygon fill="none" stroke="black" points="1773.5,-1584.14 1684.5,-1584.14 1684.5,-1548.14 1773.5,-1548.14 1773.5,-1584.14"/>
<text text-anchor="middle" x="1729" y="-1562.44" font-family="Times New Roman,serif" font-size="14.00">leaf=1.26283</text>
</g>
<!-- 22&#45;&gt;40 -->
<g id="edge26" class="edge"><title>22&#45;&gt;40</title>
<path fill="none" stroke="#ff0000" d="M1559.09,-1583.01C1598.16,-1579.11 1641.25,-1574.81 1674.13,-1571.52"/>
<polygon fill="#ff0000" stroke="#ff0000" points="1674.82,-1574.97 1684.43,-1570.49 1674.13,-1568 1674.82,-1574.97"/>
<text text-anchor="middle" x="1632" y="-1581.94" font-family="Times New Roman,serif" font-size="14.00">no</text>
</g>
<!-- 11 -->
<g id="node30" class="node"><title>11</title>
<ellipse fill="none" stroke="black" cx="1105.98" cy="-1355.14" rx="102.882" ry="102.882"/>
<text text-anchor="middle" x="1105.98" y="-1351.44" font-family="Times New Roman,serif" font-size="14.00">NearestCompetitor&lt;1438</text>
</g>
<!-- 5&#45;&gt;11 -->
<g id="edge29" class="edge"><title>5&#45;&gt;11</title>
<path fill="none" stroke="#0000ff" d="M868.653,-1277.7C909.546,-1291.1 956.987,-1306.64 998.585,-1320.28"/>
<polygon fill="#0000ff" stroke="#0000ff" points="997.601,-1323.64 1008.19,-1323.43 999.781,-1316.99 997.601,-1323.64"/>
<text text-anchor="middle" x="930.641" y="-1309.94" font-family="Times New Roman,serif" font-size="14.00">yes, missing</text>
</g>
<!-- 12 -->
<g id="node31" class="node"><title>12</title>
<ellipse fill="none" stroke="black" cx="1105.98" cy="-1136.14" rx="98.2828" ry="98.2828"/>
<text text-anchor="middle" x="1105.98" y="-1132.44" font-family="Times New Roman,serif" font-size="14.00">NearestCompetitor&lt;143</text>
</g>
<!-- 5&#45;&gt;12 -->
<g id="edge30" class="edge"><title>5&#45;&gt;12</title>
<path fill="none" stroke="#ff0000" d="M868.653,-1212.88C910.98,-1199.14 960.322,-1183.11 1002.94,-1169.28"/>
<polygon fill="#ff0000" stroke="#ff0000" points="1004.06,-1172.59 1012.49,-1166.17 1001.9,-1165.93 1004.06,-1172.59"/>
<text text-anchor="middle" x="930.641" y="-1206.94" font-family="Times New Roman,serif" font-size="14.00">no</text>
</g>
<!-- 13 -->
<g id="node40" class="node"><title>13</title>
<ellipse fill="none" stroke="black" cx="1105.98" cy="-566.141" rx="105.082" ry="105.082"/>
<text text-anchor="middle" x="1105.98" y="-562.441" font-family="Times New Roman,serif" font-size="14.00">Min_VisibilitykM&lt;243760</text>
</g>
<!-- 6&#45;&gt;13 -->
<g id="edge39" class="edge"><title>6&#45;&gt;13</title>
<path fill="none" stroke="#0000ff" d="M873.671,-566.141C910.773,-566.141 952.726,-566.141 990.619,-566.141"/>
<polygon fill="#0000ff" stroke="#0000ff" points="990.673,-569.641 1000.67,-566.141 990.673,-562.641 990.673,-569.641"/>
<text text-anchor="middle" x="930.641" y="-569.941" font-family="Times New Roman,serif" font-size="14.00">yes, missing</text>
</g>
<!-- 14 -->
<g id="node41" class="node"><title>14</title>
<ellipse fill="none" stroke="black" cx="1105.98" cy="-319.141" rx="105.082" ry="105.082"/>
<text text-anchor="middle" x="1105.98" y="-315.441" font-family="Times New Roman,serif" font-size="14.00">Min_VisibilitykM&lt;485307</text>
</g>
<!-- 6&#45;&gt;14 -->
<g id="edge40" class="edge"><title>6&#45;&gt;14</title>
<path fill="none" stroke="#ff0000" d="M853.573,-504.132C901.957,-468.53 962.779,-423.776 1012.48,-387.205"/>
<polygon fill="#ff0000" stroke="#ff0000" points="1014.69,-389.922 1020.67,-381.177 1010.54,-384.284 1014.69,-389.922"/>
<text text-anchor="middle" x="930.641" y="-475.941" font-family="Times New Roman,serif" font-size="14.00">no</text>
</g>
<!-- 23 -->
<g id="node32" class="node"><title>23</title>
<polygon fill="none" stroke="black" points="1501.16,-1472.14 1412.16,-1472.14 1412.16,-1436.14 1501.16,-1436.14 1501.16,-1472.14"/>
<text text-anchor="middle" x="1456.66" y="-1450.44" font-family="Times New Roman,serif" font-size="14.00">leaf=1.21476</text>
</g>
<!-- 11&#45;&gt;23 -->
<g id="edge31" class="edge"><title>11&#45;&gt;23</title>
<path fill="none" stroke="#0000ff" d="M1203.56,-1387.89C1243.62,-1400.93 1290.73,-1415.55 1333.82,-1427.14 1356.04,-1433.12 1380.78,-1438.78 1402.14,-1443.36"/>
<polygon fill="#0000ff" stroke="#0000ff" points="1401.5,-1446.8 1412.01,-1445.45 1402.95,-1439.96 1401.5,-1446.8"/>
<text text-anchor="middle" x="1281.32" y="-1424.94" font-family="Times New Roman,serif" font-size="14.00">yes, missing</text>
</g>
<!-- 24 -->
<g id="node33" class="node"><title>24</title>
<ellipse fill="none" stroke="black" cx="1456.66" cy="-1315.14" rx="102.882" ry="102.882"/>
<text text-anchor="middle" x="1456.66" y="-1311.44" font-family="Times New Roman,serif" font-size="14.00">NearestCompetitor&lt;6396</text>
</g>
<!-- 11&#45;&gt;24 -->
<g id="edge32" class="edge"><title>11&#45;&gt;24</title>
<path fill="none" stroke="#ff0000" d="M1208.3,-1343.52C1250.92,-1338.63 1300.66,-1332.92 1344.3,-1327.92"/>
<polygon fill="#ff0000" stroke="#ff0000" points="1344.85,-1331.38 1354.39,-1326.76 1344.05,-1324.42 1344.85,-1331.38"/>
<text text-anchor="middle" x="1281.32" y="-1341.94" font-family="Times New Roman,serif" font-size="14.00">no</text>
</g>
<!-- 25 -->
<g id="node36" class="node"><title>25</title>
<polygon fill="none" stroke="black" points="1501.16,-1194.14 1412.16,-1194.14 1412.16,-1158.14 1501.16,-1158.14 1501.16,-1194.14"/>
<text text-anchor="middle" x="1456.66" y="-1172.44" font-family="Times New Roman,serif" font-size="14.00">leaf=1.40953</text>
</g>
<!-- 12&#45;&gt;25 -->
<g id="edge35" class="edge"><title>12&#45;&gt;25</title>
<path fill="none" stroke="#0000ff" d="M1203.64,-1147.23C1267.51,-1154.56 1348.85,-1163.89 1401.58,-1169.94"/>
<polygon fill="#0000ff" stroke="#0000ff" points="1401.39,-1173.44 1411.73,-1171.1 1402.19,-1166.48 1401.39,-1173.44"/>
<text text-anchor="middle" x="1281.32" y="-1162.94" font-family="Times New Roman,serif" font-size="14.00">yes, missing</text>
</g>
<!-- 26 -->
<g id="node37" class="node"><title>26</title>
<ellipse fill="none" stroke="black" cx="1456.66" cy="-1035.14" rx="105.082" ry="105.082"/>
<text text-anchor="middle" x="1456.66" y="-1031.44" font-family="Times New Roman,serif" font-size="14.00">Min_VisibilitykM&lt;182125</text>
</g>
<!-- 12&#45;&gt;26 -->
<g id="edge36" class="edge"><title>12&#45;&gt;26</title>
<path fill="none" stroke="#ff0000" d="M1200.42,-1109.08C1245.05,-1096.15 1298.78,-1080.58 1345.4,-1067.08"/>
<polygon fill="#ff0000" stroke="#ff0000" points="1346.6,-1070.37 1355.23,-1064.23 1344.65,-1063.65 1346.6,-1070.37"/>
<text text-anchor="middle" x="1281.32" y="-1097.94" font-family="Times New Roman,serif" font-size="14.00">no</text>
</g>
<!-- 41 -->
<g id="node34" class="node"><title>41</title>
<polygon fill="none" stroke="black" points="1773.5,-1360.14 1684.5,-1360.14 1684.5,-1324.14 1773.5,-1324.14 1773.5,-1360.14"/>
<text text-anchor="middle" x="1729" y="-1338.44" font-family="Times New Roman,serif" font-size="14.00">leaf=1.30705</text>
</g>
<!-- 24&#45;&gt;41 -->
<g id="edge33" class="edge"><title>24&#45;&gt;41</title>
<path fill="none" stroke="#0000ff" d="M1559.09,-1325.27C1598.16,-1329.17 1641.25,-1333.48 1674.13,-1336.76"/>
<polygon fill="#0000ff" stroke="#0000ff" points="1674.13,-1340.28 1684.43,-1337.79 1674.82,-1333.31 1674.13,-1340.28"/>
<text text-anchor="middle" x="1632" y="-1338.94" font-family="Times New Roman,serif" font-size="14.00">yes, missing</text>
</g>
<!-- 42 -->
<g id="node35" class="node"><title>42</title>
<polygon fill="none" stroke="black" points="1773.5,-1306.14 1684.5,-1306.14 1684.5,-1270.14 1773.5,-1270.14 1773.5,-1306.14"/>
<text text-anchor="middle" x="1729" y="-1284.44" font-family="Times New Roman,serif" font-size="14.00">leaf=1.23338</text>
</g>
<!-- 24&#45;&gt;42 -->
<g id="edge34" class="edge"><title>24&#45;&gt;42</title>
<path fill="none" stroke="#ff0000" d="M1559.09,-1305.01C1598.16,-1301.11 1641.25,-1296.81 1674.13,-1293.52"/>
<polygon fill="#ff0000" stroke="#ff0000" points="1674.82,-1296.97 1684.43,-1292.49 1674.13,-1290 1674.82,-1296.97"/>
<text text-anchor="middle" x="1632" y="-1303.94" font-family="Times New Roman,serif" font-size="14.00">no</text>
</g>
<!-- 43 -->
<g id="node38" class="node"><title>43</title>
<polygon fill="none" stroke="black" points="1773.5,-1080.14 1684.5,-1080.14 1684.5,-1044.14 1773.5,-1044.14 1773.5,-1080.14"/>
<text text-anchor="middle" x="1729" y="-1058.44" font-family="Times New Roman,serif" font-size="14.00">leaf=1.39825</text>
</g>
<!-- 26&#45;&gt;43 -->
<g id="edge37" class="edge"><title>26&#45;&gt;43</title>
<path fill="none" stroke="#0000ff" d="M1561.79,-1045.54C1600.18,-1049.38 1642.09,-1053.56 1674.23,-1056.77"/>
<polygon fill="#0000ff" stroke="#0000ff" points="1674,-1060.27 1684.3,-1057.78 1674.7,-1053.3 1674,-1060.27"/>
<text text-anchor="middle" x="1632" y="-1058.94" font-family="Times New Roman,serif" font-size="14.00">yes, missing</text>
</g>
<!-- 44 -->
<g id="node39" class="node"><title>44</title>
<polygon fill="none" stroke="black" points="1773.5,-1026.14 1684.5,-1026.14 1684.5,-990.141 1773.5,-990.141 1773.5,-1026.14"/>
<text text-anchor="middle" x="1729" y="-1004.44" font-family="Times New Roman,serif" font-size="14.00">leaf=1.32204</text>
</g>
<!-- 26&#45;&gt;44 -->
<g id="edge38" class="edge"><title>26&#45;&gt;44</title>
<path fill="none" stroke="#ff0000" d="M1561.79,-1024.74C1600.18,-1020.91 1642.09,-1016.72 1674.23,-1013.51"/>
<polygon fill="#ff0000" stroke="#ff0000" points="1674.7,-1016.98 1684.3,-1012.51 1674,-1010.02 1674.7,-1016.98"/>
<text text-anchor="middle" x="1632" y="-1023.94" font-family="Times New Roman,serif" font-size="14.00">no</text>
</g>
<!-- 27 -->
<g id="node42" class="node"><title>27</title>
<ellipse fill="none" stroke="black" cx="1456.66" cy="-789.141" rx="122.678" ry="122.678"/>
<text text-anchor="middle" x="1456.66" y="-785.441" font-family="Times New Roman,serif" font-size="14.00">StoreType_ShoppingCenter&lt;1</text>
</g>
<!-- 13&#45;&gt;27 -->
<g id="edge41" class="edge"><title>13&#45;&gt;27</title>
<path fill="none" stroke="#0000ff" d="M1195.42,-622.702C1240.62,-651.612 1296.1,-687.091 1344.2,-717.855"/>
<polygon fill="#0000ff" stroke="#0000ff" points="1342.47,-720.903 1352.78,-723.343 1346.24,-715.006 1342.47,-720.903"/>
<text text-anchor="middle" x="1281.32" y="-701.941" font-family="Times New Roman,serif" font-size="14.00">yes, missing</text>
</g>
<!-- 28 -->
<g id="node43" class="node"><title>28</title>
<ellipse fill="none" stroke="black" cx="1456.66" cy="-545.141" rx="102.882" ry="102.882"/>
<text text-anchor="middle" x="1456.66" y="-541.441" font-family="Times New Roman,serif" font-size="14.00">NearestCompetitor&lt;1474</text>
</g>
<!-- 13&#45;&gt;28 -->
<g id="edge42" class="edge"><title>13&#45;&gt;28</title>
<path fill="none" stroke="#ff0000" d="M1211.12,-559.869C1252.92,-557.352 1301.19,-554.445 1343.73,-551.882"/>
<polygon fill="#ff0000" stroke="#ff0000" points="1344.08,-555.368 1353.85,-551.273 1343.66,-548.38 1344.08,-555.368"/>
<text text-anchor="middle" x="1281.32" y="-561.941" font-family="Times New Roman,serif" font-size="14.00">no</text>
</g>
<!-- 29 -->
<g id="node48" class="node"><title>29</title>
<ellipse fill="none" stroke="black" cx="1456.66" cy="-319.141" rx="105.082" ry="105.082"/>
<text text-anchor="middle" x="1456.66" y="-315.441" font-family="Times New Roman,serif" font-size="14.00">Min_VisibilitykM&lt;288388</text>
</g>
<!-- 14&#45;&gt;29 -->
<g id="edge47" class="edge"><title>14&#45;&gt;29</title>
<path fill="none" stroke="#0000ff" d="M1211.59,-319.141C1252.36,-319.141 1299.22,-319.141 1340.92,-319.141"/>
<polygon fill="#0000ff" stroke="#0000ff" points="1341.12,-322.641 1351.12,-319.141 1341.12,-315.641 1341.12,-322.641"/>
<text text-anchor="middle" x="1281.32" y="-322.941" font-family="Times New Roman,serif" font-size="14.00">yes, missing</text>
</g>
<!-- 30 -->
<g id="node49" class="node"><title>30</title>
<ellipse fill="none" stroke="black" cx="1456.66" cy="-98.1413" rx="98.2828" ry="98.2828"/>
<text text-anchor="middle" x="1456.66" y="-94.4413" font-family="Times New Roman,serif" font-size="14.00">NearestCompetitor&lt;678</text>
</g>
<!-- 14&#45;&gt;30 -->
<g id="edge48" class="edge"><title>14&#45;&gt;30</title>
<path fill="none" stroke="#ff0000" d="M1195.42,-263.088C1247.21,-230.261 1312.49,-188.886 1364.71,-155.788"/>
<polygon fill="#ff0000" stroke="#ff0000" points="1366.73,-158.649 1373.3,-150.34 1362.98,-152.737 1366.73,-158.649"/>
<text text-anchor="middle" x="1281.32" y="-232.941" font-family="Times New Roman,serif" font-size="14.00">no</text>
</g>
<!-- 45 -->
<g id="node44" class="node"><title>45</title>
<polygon fill="none" stroke="black" points="1773.5,-834.141 1684.5,-834.141 1684.5,-798.141 1773.5,-798.141 1773.5,-834.141"/>
<text text-anchor="middle" x="1729" y="-812.441" font-family="Times New Roman,serif" font-size="14.00">leaf=1.28571</text>
</g>
<!-- 27&#45;&gt;45 -->
<g id="edge43" class="edge"><title>27&#45;&gt;45</title>
<path fill="none" stroke="#0000ff" d="M1578.99,-801.259C1612.35,-804.591 1646.84,-808.036 1674.23,-810.771"/>
<polygon fill="#0000ff" stroke="#0000ff" points="1674.06,-814.272 1684.36,-811.783 1674.76,-807.306 1674.06,-814.272"/>
<text text-anchor="middle" x="1632" y="-813.941" font-family="Times New Roman,serif" font-size="14.00">yes, missing</text>
</g>
<!-- 46 -->
<g id="node45" class="node"><title>46</title>
<polygon fill="none" stroke="black" points="1773.5,-780.141 1684.5,-780.141 1684.5,-744.141 1773.5,-744.141 1773.5,-780.141"/>
<text text-anchor="middle" x="1729" y="-758.441" font-family="Times New Roman,serif" font-size="14.00">leaf=1.33743</text>
</g>
<!-- 27&#45;&gt;46 -->
<g id="edge44" class="edge"><title>27&#45;&gt;46</title>
<path fill="none" stroke="#ff0000" d="M1578.99,-777.023C1612.35,-773.692 1646.84,-770.247 1674.23,-767.512"/>
<polygon fill="#ff0000" stroke="#ff0000" points="1674.76,-770.976 1684.36,-766.5 1674.06,-764.011 1674.76,-770.976"/>
<text text-anchor="middle" x="1632" y="-778.941" font-family="Times New Roman,serif" font-size="14.00">no</text>
</g>
<!-- 47 -->
<g id="node46" class="node"><title>47</title>
<polygon fill="none" stroke="black" points="1773.5,-590.141 1684.5,-590.141 1684.5,-554.141 1773.5,-554.141 1773.5,-590.141"/>
<text text-anchor="middle" x="1729" y="-568.441" font-family="Times New Roman,serif" font-size="14.00">leaf=1.45973</text>
</g>
<!-- 28&#45;&gt;47 -->
<g id="edge45" class="edge"><title>28&#45;&gt;47</title>
<path fill="none" stroke="#0000ff" d="M1559.09,-555.272C1598.16,-559.174 1641.25,-563.477 1674.13,-566.761"/>
<polygon fill="#0000ff" stroke="#0000ff" points="1674.13,-570.278 1684.43,-567.79 1674.82,-563.313 1674.13,-570.278"/>
<text text-anchor="middle" x="1632" y="-569.941" font-family="Times New Roman,serif" font-size="14.00">yes, missing</text>
</g>
<!-- 48 -->
<g id="node47" class="node"><title>48</title>
<polygon fill="none" stroke="black" points="1773.5,-536.141 1684.5,-536.141 1684.5,-500.141 1773.5,-500.141 1773.5,-536.141"/>
<text text-anchor="middle" x="1729" y="-514.441" font-family="Times New Roman,serif" font-size="14.00">leaf=1.26789</text>
</g>
<!-- 28&#45;&gt;48 -->
<g id="edge46" class="edge"><title>28&#45;&gt;48</title>
<path fill="none" stroke="#ff0000" d="M1559.09,-535.011C1598.16,-531.109 1641.25,-526.805 1674.13,-523.521"/>
<polygon fill="#ff0000" stroke="#ff0000" points="1674.82,-526.97 1684.43,-522.493 1674.13,-520.004 1674.82,-526.97"/>
<text text-anchor="middle" x="1632" y="-534.941" font-family="Times New Roman,serif" font-size="14.00">no</text>
</g>
<!-- 49 -->
<g id="node50" class="node"><title>49</title>
<polygon fill="none" stroke="black" points="1773.5,-364.141 1684.5,-364.141 1684.5,-328.141 1773.5,-328.141 1773.5,-364.141"/>
<text text-anchor="middle" x="1729" y="-342.441" font-family="Times New Roman,serif" font-size="14.00">leaf=1.21484</text>
</g>
<!-- 29&#45;&gt;49 -->
<g id="edge49" class="edge"><title>29&#45;&gt;49</title>
<path fill="none" stroke="#0000ff" d="M1561.79,-329.542C1600.18,-333.375 1642.09,-337.562 1674.23,-340.771"/>
<polygon fill="#0000ff" stroke="#0000ff" points="1674,-344.266 1684.3,-341.777 1674.7,-337.301 1674,-344.266"/>
<text text-anchor="middle" x="1632" y="-343.941" font-family="Times New Roman,serif" font-size="14.00">yes, missing</text>
</g>
<!-- 50 -->
<g id="node51" class="node"><title>50</title>
<polygon fill="none" stroke="black" points="1773.5,-310.141 1684.5,-310.141 1684.5,-274.141 1773.5,-274.141 1773.5,-310.141"/>
<text text-anchor="middle" x="1729" y="-288.441" font-family="Times New Roman,serif" font-size="14.00">leaf=1.26327</text>
</g>
<!-- 29&#45;&gt;50 -->
<g id="edge50" class="edge"><title>29&#45;&gt;50</title>
<path fill="none" stroke="#ff0000" d="M1561.79,-308.741C1600.18,-304.907 1642.09,-300.721 1674.23,-297.511"/>
<polygon fill="#ff0000" stroke="#ff0000" points="1674.7,-300.982 1684.3,-296.505 1674,-294.017 1674.7,-300.982"/>
<text text-anchor="middle" x="1632" y="-308.941" font-family="Times New Roman,serif" font-size="14.00">no</text>
</g>
<!-- 51 -->
<g id="node52" class="node"><title>51</title>
<polygon fill="none" stroke="black" points="1773.5,-143.141 1684.5,-143.141 1684.5,-107.141 1773.5,-107.141 1773.5,-143.141"/>
<text text-anchor="middle" x="1729" y="-121.441" font-family="Times New Roman,serif" font-size="14.00">leaf=1.42498</text>
</g>
<!-- 30&#45;&gt;51 -->
<g id="edge51" class="edge"><title>30&#45;&gt;51</title>
<path fill="none" stroke="#0000ff" d="M1554.49,-107.813C1594.72,-111.831 1639.89,-116.342 1674.05,-119.754"/>
<polygon fill="#0000ff" stroke="#0000ff" points="1673.99,-123.265 1684.29,-120.776 1674.68,-116.299 1673.99,-123.265"/>
<text text-anchor="middle" x="1632" y="-122.941" font-family="Times New Roman,serif" font-size="14.00">yes, missing</text>
</g>
<!-- 52 -->
<g id="node53" class="node"><title>52</title>
<polygon fill="none" stroke="black" points="1773.5,-89.1413 1684.5,-89.1413 1684.5,-53.1413 1773.5,-53.1413 1773.5,-89.1413"/>
<text text-anchor="middle" x="1729" y="-67.4413" font-family="Times New Roman,serif" font-size="14.00">leaf=1.30435</text>
</g>
<!-- 30&#45;&gt;52 -->
<g id="edge52" class="edge"><title>30&#45;&gt;52</title>
<path fill="none" stroke="#ff0000" d="M1554.49,-88.4699C1594.72,-84.452 1639.89,-79.9409 1674.05,-76.5287"/>
<polygon fill="#ff0000" stroke="#ff0000" points="1674.68,-79.9834 1684.29,-75.5069 1673.99,-73.0181 1674.68,-79.9834"/>
<text text-anchor="middle" x="1632" y="-87.9413" font-family="Times New Roman,serif" font-size="14.00">no</text>
</g>
</g>
</svg>
